<?xml version="1.0" encoding="UTF-8"?>
<!DOCTYPE svg PUBLIC "-//W3C//DTD SVG 1.1//EN" "http://www.w3.org/Graphics/SVG/1.1/DTD/svg11.dtd">
<!-- Creator: CorelDRAW (OEM Version) -->
<svg xmlns="http://www.w3.org/2000/svg" xml:space="preserve" width="50.0466mm" height="50.0466mm" version="1.1" style="shape-rendering:geometricPrecision; text-rendering:geometricPrecision; image-rendering:optimizeQuality; fill-rule:evenodd; clip-rule:evenodd"
viewBox="0 0 5004.66 5004.66"
 xmlns:xlink="http://www.w3.org/1999/xlink"
 xmlns:xodm="http://www.corel.com/coreldraw/odm/2003">
 <defs>
  <style type="text/css">
   <![CDATA[
    .fil0 {fill:none}
    .fil1 {fill:#FEFEFE;fill-rule:nonzero}
   ]]>
  </style>
 </defs>
 <g id="Layer_x0020_1">
  <metadata id="CorelCorpID_0Corel-Layer"/>
  <rect class="fil0" width="5004.66" height="5004.66"/>
  <rect class="fil0" width="5004.66" height="5004.66"/>
  <g id="_2937594108624">
   <path class="fil1" d="M3602.66 3627.02l67.54 0 -63.45 -150.56 0 115.76c0,12.29 -1.32,23.75 -4.09,34.8zm-680.42 -1774.82l-716.41 -1699.94 -1464.36 3474.76 754.52 0 709.84 -1692.7 399.42 952.45 0 -224.7c0,-390.72 110.36,-650.55 316.99,-809.87zm-711.45 692.68l-471.57 1082.14 866.03 0 0 -70.48 -394.46 -1011.66z"/>
   <path class="fil1" d="M2747.58 4852.4l716.84 -1260.18 0 -848.23c0,-143.37 66.57,-240.66 261.14,-240.66l537.63 0 -439.67 -716.84 -97.96 0c-680.97,0 -977.98,245.82 -977.98,875.58l0 1493.26 0 697.07z"/>
  </g>
 </g>
</svg>
