<?xml version="1.0" encoding="UTF-8"?>
<!DOCTYPE svg PUBLIC "-//W3C//DTD SVG 1.1//EN" "http://www.w3.org/Graphics/SVG/1.1/DTD/svg11.dtd">
<!-- Creator: CorelDRAW (OEM Version) -->
<svg xmlns="http://www.w3.org/2000/svg" xml:space="preserve" width="43.5493mm" height="43.5493mm" version="1.1" style="shape-rendering:geometricPrecision; text-rendering:geometricPrecision; image-rendering:optimizeQuality; fill-rule:evenodd; clip-rule:evenodd"
viewBox="0 0 1347.56 1347.56"
 xmlns:xlink="http://www.w3.org/1999/xlink"
 xmlns:xodm="http://www.corel.com/coreldraw/odm/2003">
 <defs>
  <style type="text/css">
   <![CDATA[
    .str0 {stroke:#D2D3D5;stroke-width:6.19;stroke-miterlimit:22.9256}
    .fil0 {fill:#FEFEFE}
    .fil2 {fill:black;fill-rule:nonzero}
    .fil1 {fill:#333333;fill-rule:nonzero}
   ]]>
  </style>
 </defs>
 <g id="Layer_x0020_1">
  <metadata id="CorelCorpID_0Corel-Layer"/>
  <g id="_2041410568960">
   <rect class="fil0 str0" x="3.1" y="3.1" width="1341.37" height="1341.37" rx="307.38" ry="307.38"/>
   <g>
    <path class="fil1" d="M952.33 917.52l15.04 0 -14.13 -33.53 0 25.78c0,2.74 -0.3,5.29 -0.91,7.75zm-151.53 -395.26l-159.55 -378.58 -326.12 773.84 168.03 0 158.08 -376.97 88.95 212.12 0 -50.04c0,-87.01 24.58,-144.88 70.59,-180.36zm-158.44 154.26l-105.02 241 192.87 0 0 -15.7 -87.85 -225.3z"/>
    <path class="fil2" d="M761.91 1190.42l159.64 -280.65 0 -188.9c0,-31.93 14.82,-53.59 58.15,-53.59l119.73 0 -97.92 -159.64 -21.82 0c-151.65,0 -217.8,54.74 -217.8,194.99l0 332.55 0 155.24z"/>
   </g>
  </g>
 </g>
</svg>
