<?xml version="1.0" encoding="UTF-8"?>
<!DOCTYPE svg PUBLIC "-//W3C//DTD SVG 1.1//EN" "http://www.w3.org/Graphics/SVG/1.1/DTD/svg11.dtd">
<!-- Creator: CorelDRAW (OEM Version) -->
<svg xmlns="http://www.w3.org/2000/svg" xml:space="preserve" width="232.358mm" height="310.108mm" version="1.1" style="shape-rendering:geometricPrecision; text-rendering:geometricPrecision; image-rendering:optimizeQuality; fill-rule:evenodd; clip-rule:evenodd"
viewBox="0 0 23235.78 31010.83"
 xmlns:xlink="http://www.w3.org/1999/xlink"
 xmlns:xodm="http://www.corel.com/coreldraw/odm/2003">
 <defs>
  <style type="text/css">
   <![CDATA[
    .fil0 {fill:#FEFEFE;fill-rule:nonzero}
   ]]>
  </style>
 </defs>
 <g id="Layer_x0020_1">
  <metadata id="CorelCorpID_0Corel-Layer"/>
  <g id="_1886217996944">
   <path class="fil0" d="M18877.7 22925.98l445.64 0 -418.63 -993.39 0 763.78c0,81.08 -8.76,156.7 -27.01,229.61zm-4489.32 -11710.04l-4726.74 -11215.94 -9661.64 22925.98 4978.21 0 4683.43 -11168.24 2635.31 6284.17 0 -1482.56c0,-2577.88 728.11,-4292.23 2091.43,-5343.41zm-4693.99 4570.24l-3111.36 7139.8 5713.92 0 0 -465.07 -2602.56 -6674.73z"/>
   <path class="fil0" d="M13235.99 31010.83l4729.66 -8314.47 0 -5596.48c0,-945.93 439.16,-1587.83 1722.92,-1587.83l3547.21 0 -2900.87 -4729.6 -646.34 0c-4492.92,0 -6452.58,1621.82 -6452.58,5776.89l0 9852.33 0 4599.16z"/>
  </g>
 </g>
</svg>
